<?xml version="1.0" encoding="utf-8"?>
<!-- Generator: Adobe Illustrator 25.3.1, SVG Export Plug-In . SVG Version: 6.00 Build 0)  -->
<svg version="1.1" id="Layer_2_1_" xmlns="http://www.w3.org/2000/svg" xmlns:xlink="http://www.w3.org/1999/xlink" x="0px" y="0px"
	 viewBox="0 0 84.2 101.8" style="enable-background:new 0 0 84.2 101.8;" xml:space="preserve">
<g id="Layer_1-2">
	<g>
		<path d="M44.6,101.8c-21.8,0-40.8-8.9-44.6-33l12.6-0.2C14.9,83.5,25.5,91,45.7,91c9.8,0,26.4-3.8,26.4-17.4
			c0-21-46.7-16.1-60.8-29c-5-3.5-7.5-9.5-7.5-16.7c0-6.6,2.6-13.1,7.4-17.4C18.9,1.8,33,0.1,41,0c22.4-0.3,40.1,14.1,42,32.9L70,33
			c-1.2-15.9-16.5-22.4-28.8-22.4c-8,0-26.1,1.6-26.1,17.1c0,18.8,45,14.4,61,27.9c5.7,4.2,8.3,9.8,8.3,17.7
			C84.2,94.5,61.9,101.8,44.6,101.8L44.6,101.8z"/>
	</g>
</g>
</svg>
