<?xml version="1.0" encoding="UTF-8"?>
<svg id="Layer_2" data-name="Layer 2" xmlns="http://www.w3.org/2000/svg" viewBox="0 0 513.39 234.01">
  <g id="Layer_1-2" data-name="Layer 1">
    <g>
      <path d="m44.6,101.81c-21.77,0-40.84-8.86-44.6-33.04l12.61-.15c2.25,14.87,12.91,22.38,33.04,22.38,9.76,0,26.43-3.75,26.43-17.42,0-21.02-46.7-16.07-60.82-28.98-4.96-3.45-7.51-9.46-7.51-16.67,0-6.61,2.55-13.06,7.36-17.42C18.92,1.81,33.04.15,40.99,0c22.37-.3,40.09,14.12,42.04,32.89l-13.06.15c-1.2-15.92-16.52-22.37-28.83-22.37-7.96,0-26.13,1.65-26.13,17.12,0,18.77,45.05,14.42,60.97,27.93,5.71,4.2,8.26,9.76,8.26,17.72,0,21.02-22.37,28.38-39.64,28.38Z"/>
      <path d="m179.44,1.66v12.16l-39.64-3.6v90.1h-11.41V10.22l-39.79,3.6V1.66h90.85Z"/>
      <path d="m260.38,1.51h11.11v62.17c0,23.28-14.57,36.64-39.79,36.64s-39.64-13.67-39.64-36.64V1.51h11.11v60.21c0,17.42,10.96,28.08,28.53,28.08s28.68-10.06,28.68-28.08V1.51Z"/>
      <path d="m288.75,1.81l38.59-.15c34.54,1.05,51.05,17.27,51.05,49.55s-16.52,48.05-51.05,49.1h-38.59V1.81Zm11.86,88.75h21.77c30.93,0,43.4-11.41,43.4-39.34s-12.46-39.64-43.4-39.64h-21.77v78.98Z"/>
      <path d="m392.81,1.66h11.26v98.66h-11.26V1.66Z"/>
      <path d="m417.44,50.91c0-30.03,19.37-50.3,47.9-50.3s48.05,20.27,48.05,50.3-19.22,50.6-48.05,50.6-47.9-20.12-47.9-50.6Zm47.9,40.54c26.58,0,36.04-21.77,36.04-40.54,0-24.18-14.26-40.09-36.04-40.09s-35.89,15.92-35.89,40.09,14.12,40.54,35.89,40.54Z"/>
      <path d="m44.6,234.01c-21.77,0-40.84-8.86-44.6-33.04l12.61-.15c2.25,14.87,12.91,22.38,33.04,22.38,9.76,0,26.43-3.75,26.43-17.42,0-21.02-46.7-16.07-60.82-28.98-4.96-3.45-7.51-9.46-7.51-16.67,0-6.61,2.55-13.06,7.36-17.42,7.81-8.71,21.92-10.36,29.88-10.51,22.37-.3,40.09,14.12,42.04,32.88l-13.06.15c-1.2-15.92-16.52-22.37-28.83-22.37-7.96,0-26.13,1.65-26.13,17.12,0,18.77,45.05,14.42,60.97,27.93,5.71,4.2,8.26,9.76,8.26,17.72,0,21.02-22.37,28.38-39.64,28.38Z"/>
      <path d="m148.06,133.7l44.6,98.81h-15.32l-7.66-25.08h-56.46l-7.51,25.08h-15.47l44.6-98.81h13.21Zm-30.03,64.12h46.7l-19.07-42.65-4.2-8.86-23.43,51.5Z"/>
      <path d="m217.58,133.85v89.65l62.62-3.75v12.76h-74.63v-98.66h12.01Z"/>
      <path d="m329.6,234.01c-21.77,0-40.84-8.86-44.6-33.04l12.61-.15c2.25,14.87,12.91,22.38,33.04,22.38,9.76,0,26.43-3.75,26.43-17.42,0-21.02-46.7-16.07-60.82-28.98-4.96-3.45-7.51-9.46-7.51-16.67,0-6.61,2.55-13.06,7.36-17.42,7.81-8.71,21.92-10.36,29.88-10.51,22.37-.3,40.09,14.12,42.04,32.88l-13.06.15c-1.2-15.92-16.52-22.37-28.83-22.37-7.96,0-26.13,1.65-26.13,17.12,0,18.77,45.05,14.42,60.97,27.93,5.71,4.2,8.26,9.76,8.26,17.72,0,21.02-22.37,28.38-39.64,28.38Z"/>
      <path d="m433.06,133.7l44.6,98.81h-15.32l-7.66-25.08h-56.46l-7.51,25.08h-15.47l44.6-98.81h13.21Zm-30.03,64.12h46.7l-19.07-42.65-4.2-8.86-23.43,51.5Z"/>
    </g>
  </g>
</svg>